<svg width="1024" height="1024" viewBox="0 0 1024 1024" fill="none" xmlns="http://www.w3.org/2000/svg">
  <defs>
    <linearGradient id="bg" x1="128" y1="96" x2="896" y2="928" gradientUnits="userSpaceOnUse">
      <stop stop-color="#0B1020"/>
      <stop offset="0.55" stop-color="#134E4A"/>
      <stop offset="1" stop-color="#0F766E"/>
    </linearGradient>
    <linearGradient id="jump" x1="286" y1="738" x2="742" y2="334" gradientUnits="userSpaceOnUse">
      <stop stop-color="#F59E0B"/>
      <stop offset="1" stop-color="#FB7185"/>
    </linearGradient>
    <linearGradient id="folderA" x1="248" y1="392" x2="750" y2="706" gradientUnits="userSpaceOnUse">
      <stop stop-color="#ECFEFF"/>
      <stop offset="1" stop-color="#CCFBF1"/>
    </linearGradient>
    <linearGradient id="folderB" x1="414" y1="214" x2="814" y2="516" gradientUnits="userSpaceOnUse">
      <stop stop-color="#E0F2FE"/>
      <stop offset="1" stop-color="#A7F3D0"/>
    </linearGradient>
    <filter id="shadow" x="118" y="106" width="788" height="802" filterUnits="userSpaceOnUse" color-interpolation-filters="sRGB">
      <feFlood flood-opacity="0" result="BackgroundImageFix"/>
      <feColorMatrix in="SourceAlpha" type="matrix" values="0 0 0 0 0 0 0 0 0 0 0 0 0 0 0 0 0 0 127 0" result="hardAlpha"/>
      <feOffset dy="28"/>
      <feGaussianBlur stdDeviation="36"/>
      <feComposite in2="hardAlpha" operator="out"/>
      <feColorMatrix type="matrix" values="0 0 0 0 0.0196078 0 0 0 0 0.0352941 0 0 0 0 0.0705882 0 0 0 0.28 0"/>
      <feBlend mode="normal" in2="BackgroundImageFix" result="effect1_dropShadow_1_1"/>
      <feBlend mode="normal" in="SourceGraphic" in2="effect1_dropShadow_1_1" result="shape"/>
    </filter>
  </defs>

  <rect x="56" y="56" width="912" height="912" rx="220" fill="url(#bg)"/>

  <circle cx="844" cy="202" r="74" fill="#F8FAFC" fill-opacity="0.08"/>
  <circle cx="196" cy="838" r="62" fill="#F8FAFC" fill-opacity="0.08"/>

  <g filter="url(#shadow)">
    <path d="M236 414C236 384.177 260.177 360 290 360H450L506 300H726C755.823 300 780 324.177 780 354V390H236V414Z" fill="url(#folderA)"/>
    <rect x="236" y="390" width="544" height="288" rx="56" fill="url(#folderA)"/>
    <rect x="278" y="432" width="460" height="204" rx="36" fill="#0B1020" fill-opacity="0.08"/>
  </g>

  <g filter="url(#shadow)">
    <path d="M388 244C388 218.49 408.49 198 434 198H556L604 150H756C781.51 150 802 170.49 802 196V228H388V244Z" fill="url(#folderB)"/>
    <rect x="388" y="228" width="414" height="224" rx="48" fill="url(#folderB)"/>
    <rect x="422" y="262" width="346" height="156" rx="30" fill="#0B1020" fill-opacity="0.08"/>
  </g>

  <path d="M330 734L460 734C589.073 734 694 629.073 694 500L694 378" stroke="url(#jump)" stroke-width="78" stroke-linecap="round" stroke-linejoin="round"/>
  <path d="M610 396L694 312L778 396" stroke="url(#jump)" stroke-width="78" stroke-linecap="round" stroke-linejoin="round"/>

  <path d="M348 540L436 596L348 652" stroke="#F8FAFC" stroke-width="48" stroke-linecap="round" stroke-linejoin="round"/>
  <path d="M484 654H596" stroke="#F8FAFC" stroke-width="48" stroke-linecap="round"/>
</svg>
